<svg height="100%" version="1.1" viewBox="0 0 139 180" width="100%"><path
	d="M104.397,111.581c-0.606,-1.872 1.106,-4.943 -0.025,-6.5c-1.147,-1.572 -4.603,-0.887 -6.175,-2.031c-1.56,-1.131 -1.969,-4.641 -3.838,-5.247c-1.806,-0.584 -4.19,1.991
	-6.19,1.991c-2,0 -4.385,-2.575 -6.191,-1.991c-1.869,0.606 -2.278,4.116 -3.834,5.247c-1.572,1.144 -5.031,0.459 -6.175,2.031c-1.135,1.557 0.581,4.628 -0.028,6.5c-0.585,1.803 -3.797,3.272 -3.797,5.272c0,2 3.212,3.469 3.797,5.272c0.606,1.872 -1.107,4.944
	0.028,6.5c1.144,1.572 4.603,0.887 6.175,2.031c1.556,1.131 1.965,4.641 3.834,5.247c1.806,0.585 4.191,-1.99 6.191,-1.99c2,0 4.384,2.575 6.19,1.99c1.869,-0.606 2.278,-4.116 3.835,-5.247c1.575,-1.144 5.031,-0.459 6.175,-2.031c1.134,-1.556 -0.578,-4.628
	0.028,-6.5c0.587,-1.803 3.797,-3.272 3.797,-5.272c0,-2 -3.21,-3.469
	-3.797,-5.272Z"/><path d="M88.169,123.516c-3.678,0 -6.663,-2.985 -6.663,-6.663c0,-3.678 2.985,-6.662 6.663,-6.662c3.681,0 6.662,2.984 6.662,6.662c0,3.678 -2.981,6.663 -6.662,6.663Z"/><path d="M21.725,54.309l85.2,0"/><path d="M21.725,42.241l85.2,0"/><path d="M21.725,66.097l85.2,0"/><path d="M21.456,77.859l54.069,0"/><path d="M20.863,110.447l33.475,0"/><path d="M20.863,122.113l33.475,0"/><path d="M20.863,133.897l22.521,0"/><rect height="164.809" width="123.491" x="2.581" y="12.284"/><path d="M12.284,11.912l0,-9.331l123.491,0l0,164.807l-9.153,0"/><path d="M74.338,139.897l-8.072,15.578l8.387,-1.241l5.241,4.419l3.144,-15.756"/><path d="M101.613,139.897l8.071,15.578l-8.384,-1.241l-5.241,4.419l-3.143,-15.756"/></svg>