<svg height="100%" version="1.1" viewBox="0 0 203 119" width="100%"><path
	d="M102.894,22.322l-8.716,4.597c-1.422,0.75 -2.465,2.059 -2.878,3.612l-4.272,16.094c-1.04,3.919 -5.234,6.084 -9.031,4.662l-3.444,-1.287c-3.322,-1.244 -5.147,-4.816
	-4.209,-8.238l5.859,-21.353c0.397,-1.44 1.338,-2.671 2.625,-3.431l13.7,-8.075l-5.903,-2.725c-2.544,-1.175 -5.5,-1.053 -7.941,0.328l-21.859,12.356c-1.894,1.072 -4.122,1.397
	-6.244,0.907l-14.8,-3.475l-11.431,51.269l25.972,9.85"/><path d="M121.809,49.881l30.582,17.453l-7.082,12.472"/><path d="M102.894,22.322l51.922,30.069c2.556,1.481 3.44,4.747 1.978,7.315l-4.444,7.828"/><path d="M114.706,62.369l30.585,17.453l-7.085,12.472"/><path d="M107.619,74.838l30.587,17.453l-4.412,7.765c-1.475,2.594 -4.778,3.494 -7.366,2.003l-18.091,-10.415"/><path d="M88.525,115.313l-7.659,-4.354l15,-26.4l12.471,7.085l-12.268,21.594c-1.51,2.656 -4.888,3.584 -7.544,2.075Z"/><path d="M80.847,110.944l-12.472,-7.085l12.419,-21.856c1.428,-2.509 4.622,-3.391 7.131,-1.962l7.922,4.503l-15,26.4Z"/><path d="M68.306,103.813l-12.469,-7.085l9.413,-16.569c1.428,-2.509 4.622,-3.39 7.131,-1.962l7.925,4.5l-12,21.116Z"/><path d="M55.862,96.691l-7.659,-4.353c-2.656,-1.51 -3.587,-4.885 -2.078,-7.541l4.128,-7.263c1.425,-2.509 4.619,-3.39 7.131,-1.962l7.922,4.5l-9.444,16.619Z"/><path d="M147.722,75.556l30.675,-6.793l-11.088,-51.638l-23.943,4.581c-2.079,0.397 -4.229,0.025 -6.054,-1.047l-27.712,-16.281c-2.65,-1.556 -5.922,-1.603 -8.613,-0.125l-8.459,4.65"/><path d="M180.406,78.447l19.647,-4.219l-15.169,-70.656l-19.65,4.219l15.172,70.656Z"/><path d="M17.75,2.581l19.65,4.219l-15.172,70.656l-19.647,-4.218l15.169,-70.657Z"/></svg>