<svg height="100%" version="1.1" viewBox="0 0 148 152" width="100%"><path d="M137.156,149.222l-126.512,0c-4.45,0 -8.063,-3.609 -8.063,-8.063l0,-130.515c0,-4.453 3.613,-8.063 8.063,-8.063l126.512,0c4.453,0 8.063,3.61 8.063,8.063l0,130.515c0,4.454 -3.61,8.063 -8.063,8.063Z"/><path d="M49.859,37.038l48.082,0"/><path d="M115.559,37.238l27.319,0"/><path d="M4.978,37.238l27.316,0"/><path d="M44.588,49.853l-5.482,0c-2.69,0 -4.872,-2.181 -4.872,-4.872l0,-15.887c0,-2.691 2.182,-4.872 4.872,-4.872l5.482,0c2.69,0 4.871,2.181 4.871,4.872l0,15.887c0,2.691 -2.181,4.872 -4.871,4.872Z"/><path d="M108.694,49.853l-5.482,0c-2.69,0 -4.871,-2.181 -4.871,-4.872l0,-15.887c0,-2.691 2.181,-4.872 4.871,-4.872l5.482,0c2.69,0 4.872,2.181 4.872,4.872l0,15.887c0,2.691 -2.182,4.872 -4.872,4.872Z"/><rect height="59.494" width="98.825" x="24.487" y="67.131"/><path d="M57.613,68.491l0,56.775"/><path d="M90.187,68.491l0,56.775"/><path d="M122.647,96.878l-97.494,0"/></svg>