<svg height="100%" version="1.1" viewBox="0 0 154 158" width="100%"><path d="M64.984,71.441l0,22.856l23.729,0l0,-22.856c0,-0.147 0.012,-0.294 0.021,-0.438l-23.772,0c0.013,0.144 0.022,0.291 0.022,0.438Z"/><path d="M99.775,71.441l0,22.856l24.569,0l0,-23.294l-24.591,0c0.013,0.144 0.022,0.291 0.022,0.438Z"/><path d="M88.713,105.359l-23.729,0l0,22.857c0,0.15 -0.009,0.293 -0.022,0.437l23.772,0c-0.009,-0.144 -0.021,-0.287 -0.021,-0.437l0,-22.857Z"/><path d="M29.356,94.297l24.569,0l0,-22.856c0,-0.147 0.009,-0.294 0.022,-0.438l-24.591,0l0,23.294Z"/><path d="M99.775,128.216c0,0.15 -0.009,0.293 -0.022,0.437l24.591,0l0,-23.294l-24.569,0l0,22.857Z"/><path d="M53.925,105.359l-24.569,0l0,23.294l24.591,0c-0.013,-0.144 -0.022,-0.287 -0.022,-0.437l0,-22.857Z"/><path
	d="M142.637,144.112c0,1.394
	-1.137,2.532 -2.531,2.532l-126.512,0c-1.394,0 -2.532,-1.138 -2.532,-2.532l0,-98.615l23.272,0l0,-12.169c0,-5.737 4.669,-10.403 10.403,-10.403l0.119,0c5.738,0 10.403,4.666 10.403,10.403l0,12.169l43.228,0l0,-12.169c0,-5.737 4.666,-10.403
	10.4,-10.403c5.766,0 10.432,4.666 10.432,10.403l0,12.169l23.318,0l0,98.615Zm-2.531,-144.112l-126.512,0c-7.494,0 -13.594,6.1 -13.594,13.594l0,130.518c0,7.494 6.1,13.594 13.594,13.594l126.512,0c7.494,0 13.594,-6.1 13.594,-13.594l0,-130.518c0,-7.494
	-6.1,-13.594 -13.594,-13.594Z"/></svg>