<svg height="100%" version="1.1" viewBox="0 0 180 166" width="100%"><rect height="12.95" width="149.116" x="15.113" y="59.029"/><rect height="12.95" width="149.116" x="15.113" y="137.16"/><path d="M92.059,3.273c-1.459,-0.922 -3.318,-0.922 -4.778,0l-78.584,49.562c-2.825,1.816 -1.541,6.194 1.815,6.194l158.285,0c3.419,0 4.69,-4.481 1.781,-6.281l-78.519,-49.475Z"/><rect height="12.95" width="174.178" x="2.581" y="150.11"/><path
	d="M23.909,76.491c0,2.488
	2.019,4.503 4.507,4.503l0.715,0l0,47.254l-0.715,0c-2.488,0 -4.507,2.018 -4.507,4.506l0,4.284l25.454,0l0,-4.284c0,-2.488 -2.016,-4.506 -4.507,-4.506l-0.715,0l0,-47.254l0.715,0c2.491,0 4.507,-2.015
	4.507,-4.503l0,-4.287l-25.454,0l0,4.287Z"/><path
	d="M59.266,76.491c0,2.488
	2.015,4.503 4.506,4.503l0.715,0l0,47.254l-0.715,0c-2.491,0 -4.506,2.018 -4.506,4.506l0,4.284l25.453,0l0,-4.284c0,-2.488 -2.016,-4.506 -4.506,-4.506l-0.716,0l0,-47.254l0.716,0c2.49,0 4.506,-2.015
	4.506,-4.503l0,-4.287l-25.453,0l0,4.287Z"/><path
	d="M94.622,76.491c0,2.488
	2.015,4.503 4.506,4.503l0.716,0l0,47.254l-0.716,0c-2.491,0 -4.506,2.018 -4.506,4.506l0,4.284l25.453,0l0,-4.284c0,-2.488 -2.016,-4.506 -4.506,-4.506l-0.716,0l0,-47.254l0.716,0c2.49,0 4.506,-2.015
	4.506,-4.503l0,-4.287l-25.453,0l0,4.287Z"/><path
	d="M150.925,80.994c2.488,0
	4.506,-2.015 4.506,-4.503l0,-4.287l-25.453,0l0,4.287c0,2.488 2.016,4.503 4.506,4.503l0.716,0l0,47.254l-0.716,0c-2.49,0 -4.506,2.018 -4.506,4.506l0,4.284l25.453,0l0,-4.284c0,-2.488 -2.018,-4.506
	-4.506,-4.506l-0.716,0l0,-47.254l0.716,0Z"/><path d="M99.419,35.388c0,5.385 -4.366,9.75 -9.75,9.75c-5.382,0 -9.747,-4.365 -9.747,-9.75c0,-5.384 4.365,-9.75 9.747,-9.75c5.384,0 9.75,4.366 9.75,9.75Z"/></svg>