<svg height="100%" version="1.1" viewBox="0 0 145 188" width="100%"><path
	d="M53.094,7.131c-17.885,10.665 -18.132,36.803 -11.453,48.049c0.318,0.538 0.731,1.004 1.356,1.019c0.766,0.016 1.412,-0.562 1.478,-1.325c0.253,-2.884 0.884,-7.737
	1.491,-9.894c1.159,-4.1 3.831,-8.237 7.14,-11.906c-1.259,4.444 -0.618,8.341 3.703,10.503c14.854,7.425 29.794,-16.115 37.063,-10.268c7.337,5.8 5.909,21.234 5.909,21.234c0,1.722 2.163,2.487 3.241,1.144c4.241,-5.291 6.219,-10.397
	6.169,-18.719c-0.219,-36.372 -40.422,-39.178
	-56.097,-29.837Z"/><path
	d="M75.741,122.477l-7.341,0c-1.631,0
	-3.031,-1.259 -3.328,-2.993l-1.838,-7.069c-0.265,-1.566 0.844,-3.006 2.316,-3.006c0,0 3.313,0.74 6.641,0.74c3.459,0 6.4,-0.74 6.4,-0.74c1.472,0 2.581,1.44 2.315,3.006l-1.837,7.069c-0.297,1.734 -1.697,2.993
	-3.328,2.993Z"/><path d="M77.081,122.477l5.45,33.994l-10.631,10.272l-10.291,-10.294l5.45,-33.972l10.022,0Z"/><path
	d="M93.55,101.137c0,0
	-10.116,7.415 -21.481,7.415c-12.631,0 -21.478,-7.415 -21.478,-7.415c-26.516,0 -48.01,21.497 -48.01,48.012l0,26.075c0,5.603 4.544,10.147 10.147,10.147l118.685,0c5.603,0 10.146,-4.544 10.146,-10.147l0,-26.075c0,-26.515 -21.493,-48.012
	-48.009,-48.012Z"/><rect height="9.797" width="24.572" x="96.081" y="138.54"/><path d="M48.772,135.365l0,16.147l-24.575,0l0,-16.147c7.85,3.347 16.725,3.347 24.575,0Z"/><path d="M99.838,53.665c0,0 -7.91,40.031 -27.522,40.031c-20.338,0 -27.86,-36.569 -27.86,-36.569"/><path d="M92.997,101.137l-4.228,-16.097"/><path d="M51.253,101.137l4.228,-16.097"/><path d="M99.006,101.446l3.403,14.497l-24.293,-7.028"/><path d="M45.163,101.446l-3.404,14.497l24.291,-7.028"/></svg>