<svg height="100%" version="1.1" viewBox="0 0 144 188" width="100%"><path d="M95.95,67.364c-2.909,11.54 -9.462,26.025 -24.003,26.025c-14.138,0 -21.103,-15.447 -24.331,-26.953"/><path
	d="M114.072,67.711c2.406,-1.813 3.919,-4.441 3.919,-7.369c0,-3.519
	-2.188,-6.606 -5.482,-8.362c2.547,-1.816 4.163,-4.522 4.163,-7.547c0,-3.61 -2.3,-6.766 -5.734,-8.497c2.69,-1.816 4.418,-4.6 4.418,-7.725c0,-5.25 -4.865,-9.541 -11.012,-9.882c-10.797,-18.356 -39.332,-18.584 -51.688,-11.218c-4.784,2.853 -8.303,6.819
	-10.759,11.306c-0.578,-0.072 -1.172,-0.109 -1.775,-0.109c-6.513,0 -11.797,4.431 -11.797,9.903c0,2.925 1.516,5.556 3.919,7.369c-3.157,1.775 -5.235,4.799 -5.235,8.228c0,3.025 1.616,5.731 4.163,7.55c-3.294,1.756 -5.481,4.843 -5.481,8.362c0,3.125
	1.728,5.91 4.418,7.725c-3.434,1.731 -5.734,4.888 -5.734,8.497c0,5.469 5.281,9.903 11.797,9.903c6.515,0 11.797,-4.434 11.797,-9.903c0,-3.125 -1.728,-5.909 -4.419,-7.725c3.434,-1.731 5.734,-4.887 5.734,-8.497c0,-3.025 -1.615,-5.731
	-4.162,-7.55c3.294,-1.756 5.481,-4.844 5.481,-8.362c0,-2.019 -0.722,-3.894 -1.956,-5.46c4.306,-1.522 6.656,0.213 11.237,0.813c8.478,1.106 13.21,-4.978 20.032,-6.269c8.984,-1.7 16.612,3.325 17.581,3.816c-2.694,1.815 -4.419,4.6 -4.419,7.725c0,3.518
	2.188,6.606 5.481,8.362c-2.546,1.816 -4.162,4.522 -4.162,7.547c0,3.431 2.078,6.453 5.234,8.231c-2.403,1.813 -3.918,4.441 -3.918,7.369c0,5.469 5.284,9.903 11.796,9.903c6.516,0 11.797,-4.434 11.797,-9.903c0,-3.431 -2.078,-6.453
	-5.234,-8.231Z"/><path
	d="M93.25,100.808c0,0
	-10.084,7.387 -21.409,7.387c-12.591,0 -21.41,-7.387 -21.41,-7.387c-26.425,0 -47.85,21.422 -47.85,47.85l0,25.99c0,5.585 4.528,10.113 10.113,10.113l118.293,0c5.585,0 10.113,-4.528 10.113,-10.113l0,-25.99c0,-26.428 -21.422,-47.85
	-47.85,-47.85Z"/><path d="M85.225,149.395l-7.409,-22.856l-11.594,0l-6.713,22.856"/><path d="M105.516,104.87c0,0 -16.666,52.085 -33.335,60.294"/><path d="M38.847,104.87c0,0 16.665,52.085 33.334,60.294"/><path d="M73.144,108.161c0,0 4.831,7.906 23,13.169"/><path d="M77.816,126.539l3.825,-11.234"/><path d="M71.103,108.161c0,0 -4.831,7.906 -23,13.169"/><path d="M66.431,126.539l-3.825,-11.234"/><path d="M92.556,100.808l-4.212,-16.047"/><path d="M50.956,100.808l4.21,-16.047"/></svg>