<svg height="100%" version="1.1" viewBox="0 0 152 163" width="100%"><path
	d="M103.666,40.928c2.162,-2.159 2.162,-5.662 0,-7.822c-2.16,-2.159 -5.663,-2.159 -7.822,0l-61.325,61.322c-7.769,7.772 -7.769,20.413 0,28.181l5.769,5.769c3.765,3.763 8.768,5.834
	14.09,5.834c5.322,0 10.325,-2.071 14.091,-5.834l76.875,-76.875c7.769,-7.769 7.769,-20.412 0,-28.181l-17.488,-17.485c-3.762,-3.765 -8.768,-5.837 -14.09,-5.837c-5.322,0 -10.325,2.075 -14.088,5.837l-90.45,90.45c-5.95,5.951 -9.228,13.863
	-9.228,22.276c0,8.415 3.278,16.325 9.228,22.274l12.813,12.813c5.95,5.953 13.859,9.228 22.275,9.228l0.006,0c8.419,-0.003 16.331,-3.281 22.278,-9.237l75.009,-75.082c2.16,-2.159 2.157,-5.662 -0.006,-7.822c-2.159,-2.159 -5.662,-2.156
	-7.822,0.004l-75.006,75.081c-3.859,3.865 -8.994,5.994 -14.456,5.994l-0.003,0c-5.46,0 -10.594,-2.125 -14.453,-5.988l-12.813,-12.812c-3.862,-3.86 -5.987,-8.994 -5.987,-14.453c0,-5.46 2.125,-10.591 5.987,-14.454l90.45,-90.45c1.675,-1.675 3.9,-2.597
	6.266,-2.597c2.368,0 4.593,0.922 6.268,2.597l17.485,17.485c3.456,3.456 3.456,9.081 0,12.534l-76.875,76.875c-1.672,1.675 -3.9,2.597 -6.266,2.597c-2.369,0 -4.594,-0.922 -6.269,-2.597l-5.765,-5.766c-3.456,-3.456 -3.456,-9.081
	0,-12.534l61.322,-61.325Z"/></svg>